G04 (created by PCBNEW (2013-07-07 BZR 4022)-stable) date 10/4/2013 1:03:36 AM*
%MOIN*%
G04 Gerber Fmt 3.4, Leading zero omitted, Abs format*
%FSLAX34Y34*%
G01*
G70*
G90*
G04 APERTURE LIST*
%ADD10C,0.00590551*%
%ADD11C,0.055*%
%ADD12R,0.16X0.16*%
%ADD13C,0.08*%
%ADD14C,0.035*%
%ADD15C,0.01*%
G04 APERTURE END LIST*
G54D10*
G54D11*
X91250Y-51900D03*
X91250Y-50900D03*
G54D12*
X87050Y-54100D03*
G54D13*
X91300Y-54100D03*
X82800Y-54100D03*
G54D14*
X89620Y-58080D03*
X84600Y-53600D03*
G54D10*
G36*
X91780Y-59380D02*
X88100Y-59380D01*
X88100Y-54850D01*
X88100Y-53349D01*
X88099Y-53250D01*
X88061Y-53158D01*
X87991Y-53087D01*
X87899Y-53049D01*
X87162Y-53050D01*
X87100Y-53112D01*
X87100Y-54050D01*
X88037Y-54050D01*
X88100Y-53987D01*
X88100Y-53349D01*
X88100Y-54850D01*
X88100Y-54212D01*
X88037Y-54150D01*
X87100Y-54150D01*
X87100Y-55087D01*
X87162Y-55150D01*
X87899Y-55150D01*
X87991Y-55112D01*
X88061Y-55041D01*
X88099Y-54949D01*
X88100Y-54850D01*
X88100Y-59380D01*
X87000Y-59380D01*
X87000Y-55087D01*
X87000Y-54150D01*
X87000Y-54050D01*
X87000Y-53112D01*
X86937Y-53050D01*
X86200Y-53049D01*
X86108Y-53087D01*
X86038Y-53158D01*
X86000Y-53250D01*
X85999Y-53349D01*
X86000Y-53987D01*
X86062Y-54050D01*
X87000Y-54050D01*
X87000Y-54150D01*
X86062Y-54150D01*
X86000Y-54212D01*
X85999Y-54850D01*
X86000Y-54949D01*
X86038Y-55041D01*
X86108Y-55112D01*
X86200Y-55150D01*
X86937Y-55150D01*
X87000Y-55087D01*
X87000Y-59380D01*
X82319Y-59380D01*
X82319Y-54538D01*
X82431Y-54650D01*
X82670Y-54749D01*
X82928Y-54750D01*
X83167Y-54651D01*
X83350Y-54468D01*
X83449Y-54229D01*
X83450Y-53971D01*
X83351Y-53732D01*
X83168Y-53549D01*
X82929Y-53450D01*
X82671Y-53449D01*
X82432Y-53548D01*
X82319Y-53661D01*
X82319Y-49919D01*
X91780Y-49919D01*
X91780Y-53661D01*
X91775Y-53655D01*
X91775Y-51796D01*
X91695Y-51603D01*
X91547Y-51455D01*
X91414Y-51399D01*
X91547Y-51345D01*
X91694Y-51197D01*
X91774Y-51004D01*
X91775Y-50796D01*
X91695Y-50603D01*
X91547Y-50455D01*
X91354Y-50375D01*
X91146Y-50374D01*
X90953Y-50454D01*
X90805Y-50602D01*
X90725Y-50795D01*
X90724Y-51003D01*
X90804Y-51197D01*
X90952Y-51344D01*
X91085Y-51400D01*
X90953Y-51454D01*
X90805Y-51602D01*
X90725Y-51795D01*
X90724Y-52003D01*
X90804Y-52197D01*
X90952Y-52344D01*
X91145Y-52424D01*
X91353Y-52425D01*
X91547Y-52345D01*
X91694Y-52197D01*
X91774Y-52004D01*
X91775Y-51796D01*
X91775Y-53655D01*
X91668Y-53549D01*
X91429Y-53450D01*
X91171Y-53449D01*
X90932Y-53548D01*
X90749Y-53731D01*
X90650Y-53970D01*
X90649Y-54228D01*
X90748Y-54467D01*
X90931Y-54650D01*
X91170Y-54749D01*
X91428Y-54750D01*
X91667Y-54651D01*
X91780Y-54538D01*
X91780Y-59380D01*
X91780Y-59380D01*
G37*
G54D15*
X91780Y-59380D02*
X88100Y-59380D01*
X88100Y-54850D01*
X88100Y-53349D01*
X88099Y-53250D01*
X88061Y-53158D01*
X87991Y-53087D01*
X87899Y-53049D01*
X87162Y-53050D01*
X87100Y-53112D01*
X87100Y-54050D01*
X88037Y-54050D01*
X88100Y-53987D01*
X88100Y-53349D01*
X88100Y-54850D01*
X88100Y-54212D01*
X88037Y-54150D01*
X87100Y-54150D01*
X87100Y-55087D01*
X87162Y-55150D01*
X87899Y-55150D01*
X87991Y-55112D01*
X88061Y-55041D01*
X88099Y-54949D01*
X88100Y-54850D01*
X88100Y-59380D01*
X87000Y-59380D01*
X87000Y-55087D01*
X87000Y-54150D01*
X87000Y-54050D01*
X87000Y-53112D01*
X86937Y-53050D01*
X86200Y-53049D01*
X86108Y-53087D01*
X86038Y-53158D01*
X86000Y-53250D01*
X85999Y-53349D01*
X86000Y-53987D01*
X86062Y-54050D01*
X87000Y-54050D01*
X87000Y-54150D01*
X86062Y-54150D01*
X86000Y-54212D01*
X85999Y-54850D01*
X86000Y-54949D01*
X86038Y-55041D01*
X86108Y-55112D01*
X86200Y-55150D01*
X86937Y-55150D01*
X87000Y-55087D01*
X87000Y-59380D01*
X82319Y-59380D01*
X82319Y-54538D01*
X82431Y-54650D01*
X82670Y-54749D01*
X82928Y-54750D01*
X83167Y-54651D01*
X83350Y-54468D01*
X83449Y-54229D01*
X83450Y-53971D01*
X83351Y-53732D01*
X83168Y-53549D01*
X82929Y-53450D01*
X82671Y-53449D01*
X82432Y-53548D01*
X82319Y-53661D01*
X82319Y-49919D01*
X91780Y-49919D01*
X91780Y-53661D01*
X91775Y-53655D01*
X91775Y-51796D01*
X91695Y-51603D01*
X91547Y-51455D01*
X91414Y-51399D01*
X91547Y-51345D01*
X91694Y-51197D01*
X91774Y-51004D01*
X91775Y-50796D01*
X91695Y-50603D01*
X91547Y-50455D01*
X91354Y-50375D01*
X91146Y-50374D01*
X90953Y-50454D01*
X90805Y-50602D01*
X90725Y-50795D01*
X90724Y-51003D01*
X90804Y-51197D01*
X90952Y-51344D01*
X91085Y-51400D01*
X90953Y-51454D01*
X90805Y-51602D01*
X90725Y-51795D01*
X90724Y-52003D01*
X90804Y-52197D01*
X90952Y-52344D01*
X91145Y-52424D01*
X91353Y-52425D01*
X91547Y-52345D01*
X91694Y-52197D01*
X91774Y-52004D01*
X91775Y-51796D01*
X91775Y-53655D01*
X91668Y-53549D01*
X91429Y-53450D01*
X91171Y-53449D01*
X90932Y-53548D01*
X90749Y-53731D01*
X90650Y-53970D01*
X90649Y-54228D01*
X90748Y-54467D01*
X90931Y-54650D01*
X91170Y-54749D01*
X91428Y-54750D01*
X91667Y-54651D01*
X91780Y-54538D01*
X91780Y-59380D01*
M02*
