G04 (created by PCBNEW (2013-07-07 BZR 4022)-stable) date 10/4/2013 1:03:36 AM*
%MOIN*%
G04 Gerber Fmt 3.4, Leading zero omitted, Abs format*
%FSLAX34Y34*%
G01*
G70*
G90*
G04 APERTURE LIST*
%ADD10C,0.00590551*%
%ADD11C,0.011811*%
%ADD12R,0.045X0.02*%
%ADD13R,0.06X0.08*%
%ADD14R,0.08X0.06*%
%ADD15C,0.055*%
%ADD16R,0.0629X0.0709*%
%ADD17C,0.08*%
G04 APERTURE END LIST*
G54D10*
G54D11*
X82733Y-51063D02*
X82733Y-50263D01*
X82966Y-50835D01*
X83200Y-50263D01*
X83200Y-51063D01*
X83466Y-50530D02*
X83633Y-51063D01*
X83800Y-50530D02*
X83633Y-51063D01*
X83566Y-51254D01*
X83533Y-51292D01*
X83466Y-51330D01*
X84300Y-50644D02*
X84400Y-50682D01*
X84433Y-50720D01*
X84466Y-50797D01*
X84466Y-50911D01*
X84433Y-50987D01*
X84400Y-51025D01*
X84333Y-51063D01*
X84066Y-51063D01*
X84066Y-50263D01*
X84300Y-50263D01*
X84366Y-50301D01*
X84400Y-50340D01*
X84433Y-50416D01*
X84433Y-50492D01*
X84400Y-50568D01*
X84366Y-50606D01*
X84300Y-50644D01*
X84066Y-50644D01*
X84866Y-51063D02*
X84800Y-51025D01*
X84766Y-50949D01*
X84766Y-50263D01*
X85133Y-51063D02*
X85133Y-50530D01*
X85133Y-50263D02*
X85100Y-50301D01*
X85133Y-50340D01*
X85166Y-50301D01*
X85133Y-50263D01*
X85133Y-50340D01*
X85466Y-50530D02*
X85466Y-51063D01*
X85466Y-50606D02*
X85500Y-50568D01*
X85566Y-50530D01*
X85666Y-50530D01*
X85733Y-50568D01*
X85766Y-50644D01*
X85766Y-51063D01*
X86100Y-51063D02*
X86100Y-50263D01*
X86166Y-50759D02*
X86366Y-51063D01*
X86366Y-50530D02*
X86100Y-50835D01*
X86600Y-50530D02*
X86766Y-51063D01*
X86933Y-50530D02*
X86766Y-51063D01*
X86700Y-51254D01*
X86666Y-51292D01*
X86600Y-51330D01*
G54D12*
X88350Y-54300D03*
X88350Y-54800D03*
X88350Y-55300D03*
X88350Y-55800D03*
X85850Y-55800D03*
X85850Y-55300D03*
X85850Y-54800D03*
X85850Y-54300D03*
G54D13*
X87350Y-57025D03*
X88650Y-57025D03*
X87810Y-52460D03*
X86510Y-52460D03*
G54D14*
X84100Y-56200D03*
X84100Y-57500D03*
G54D15*
X91250Y-51900D03*
X91250Y-50900D03*
G54D16*
X86641Y-58500D03*
X87759Y-58500D03*
G54D17*
X91300Y-54100D03*
X82800Y-54100D03*
M02*
